<?xml version="1.0" encoding="UTF-8"?>
<!DOCTYPE svg PUBLIC "-//W3C//DTD SVG 1.0//EN" "http://www.w3.org/TR/2001/REC-SVG-20010904/DTD/svg10.dtd">
<!-- Creator: CorelDRAW -->
<svg xmlns="http://www.w3.org/2000/svg" xml:space="preserve" width="119.333mm" height="119.335mm" version="1.0" style="shape-rendering:geometricPrecision; text-rendering:geometricPrecision; image-rendering:optimizeQuality; fill-rule:evenodd; clip-rule:evenodd"
viewBox="0 0 11925.41 11925.69"
 xmlns:xlink="http://www.w3.org/1999/xlink"
 xmlns:xodm="http://www.corel.com/coreldraw/odm/2003">
 <defs>
  <style type="text/css">
   <![CDATA[
    .fil0 {fill:url(#id0)}
   ]]>
  </style>
  <linearGradient id="id0" gradientUnits="userSpaceOnUse" x1="-0" y1="5962.85" x2="11925.41" y2="5962.85">
   <stop offset="0" style="stop-opacity:1; stop-color:#625FFF"/>
   <stop offset="0.501961" style="stop-opacity:1; stop-color:#00AFD3"/>
   <stop offset="1" style="stop-opacity:1; stop-color:#00BC7D"/>
  </linearGradient>
 </defs>
 <g id="Camada_x0020_1">
  <metadata id="CorelCorpID_0Corel-Layer"/>
  <path class="fil0" d="M7654.48 10509.56c1219.78,-454.39 2206.59,-1382.33 2735.36,-2571.68 -616.09,104.51 -1286.83,189.03 -2012.5,253.53 -153.81,909.34 -394.95,1679.52 -722.85,2310.55m-1691.92 1423.73c3292.57,-0.28 5962.85,-2670.56 5962.85,-5962.84 0,-3292.57 -2670.28,-5962.85 -5962.85,-5962.85 -3292.28,0 -5962.56,2670.28 -5962.56,5962.85 0,3292.28 2670.28,5962.56 5962.56,5962.56m357.77 -1132.73c-118.32,7.6 -238.61,12.11 -357.77,12.11 -118.87,0 -239.16,-4.51 -357.76,-12.11l-14.93 0c-270.71,-283.4 -484.25,-618.34 -625.66,-984 -189.03,-442.27 -345.65,-958.92 -469.89,-1550.22 482,20.85 977.24,35.5 1461.21,35.5 483.68,0 978.92,-14.65 1459.23,-36.35 -123.39,596.94 -279.46,1113.87 -468.47,1551.36 -142.55,362.55 -355.8,694.96 -626.24,975.82l0.29 7.89zm2191.37 -3547.79c824.84,-74.65 1557.83,-181.42 2198.71,-320.58 59.44,-317.2 89.3,-639.47 89.3,-961.46 0,-322.28 -29.86,-644.54 -89.3,-961.19 -645.95,-134.37 -1378.95,-241.42 -2198.71,-320.86 40,423.68 61.41,854.42 61.41,1282.04 0,427.34 -21.41,858.06 -60.56,1282.31m-947.38 -2638.73c47.89,448.47 72.68,904.83 72.68,1356.42 0,451.28 -24.79,907.65 -72.68,1356.41 -527.35,30.14 -1070.19,44.22 -1602.62,44.22 -532.14,0 -1074.98,-14.08 -1603.74,-42.53 -46.48,-450.44 -71.27,-906.81 -71.27,-1358.09 0,-451.58 24.79,-907.94 72.68,-1356.7 527.35,-30.14 1070.19,-44.23 1602.33,-44.23 532.43,0 1075.27,14.09 1604.03,42.54m818.35 -870.19c720.6,64.51 1388.8,149.02 2004.9,253.53 -530.17,-1186.54 -1516.98,-2111.66 -2735.36,-2564.08 323.12,625.95 566.51,1396.13 730.46,2310.55m-2064.61 -2616.19l7.33 14.93c203.95,183.96 412.41,509.32 626.23,976.4 188.74,442.27 345.37,958.92 469.6,1550.22 -481.71,-20.85 -976.96,-35.5 -1460.93,-35.5 -483.68,0 -978.91,14.65 -1459.23,36.34 123.11,-596.65 279.18,-1113.86 467.91,-1551.06 144.23,-366.22 360.58,-701.45 634.12,-984 118.03,-7.6 238.32,-12.11 357.19,-12.11 119.16,0 239.45,4.51 358.05,12.11m-2049.97 298.32c-1218.09,452.42 -2204.91,1377.54 -2735.36,2564.08 664.26,-113.8 1339.8,-200.86 2012.5,-253.81 153.81,-909.06 394.95,-1679.24 722.85,-2310.27m-857.22 3257.07c-824.84,79.44 -1557.83,186.49 -2198.71,320.58 -59.15,316.92 -89.01,639.19 -89.01,961.47 0,321.99 29.86,644.26 89.3,960.89 645.66,134.66 1378.66,241.71 2198.42,321.15 -39.72,-423.97 -61.13,-854.7 -61.13,-1282.03 0,-427.63 21.41,-858.36 60.56,-1282.6m127.34 3511.16c-720.6,-59.72 -1388.8,-143.96 -2004.9,-253.53 530.45,1186.26 1517.27,2111.38 2735.64,2563.79 -323.12,-630.73 -566.79,-1400.92 -730.74,-2310.26z"/>
 </g>
</svg>
